<?xml version="1.0" ?><svg enable-background="new 0 0 64 64" id="Layer_1" version="1.1" viewBox="0 0 64 64" xml:space="preserve" xmlns="http://www.w3.org/2000/svg" xmlns:xlink="http://www.w3.org/1999/xlink"><g><path d="M47.2,8.6c8.1,0,14.2,3.4,14.2,6.4s-6.1,6.4-14.2,6.4C39.1,21.4,33,18,33,15S39.1,8.6,47.2,8.6 M47.2,6   c-9.3,0-16.8,4-16.8,8.9s7.5,8.9,16.8,8.9S64,19.9,64,15S56.5,6,47.2,6L47.2,6z" fill="#63ce4e"/><g><line fill="#63ce4e" stroke="#63ce4e" stroke-linejoin="round" stroke-miterlimit="10" stroke-width="2.5" x1="31.5" x2="31.5" y1="18.1" y2="18.1"/></g><g><ellipse cx="47.2" cy="15" fill="#63ce4e" rx="2.1" ry="1.1"/></g><path d="M47.2,6C43.3,6,39.6,6.8,36.8,8c0.3-0.1,0.6-0.2,0.8-0.3h-35C1.2,7.7,0,8.8,0,10.3v33.5   c0,1.4,1.2,2.6,2.6,2.6h28.8v3.1c0,4.6,7,8.4,15.7,8.4s15.7-3.8,15.7-8.4V18.1c0.7-1,1-2,1-3.1C64,10.1,56.5,6,47.2,6z M36.2,8.2   c-0.2,0.1-0.3,0.2-0.5,0.2C35.9,8.4,36.1,8.3,36.2,8.2z M35,8.9c-0.2,0.1-0.3,0.2-0.5,0.3C34.7,9.1,34.8,9,35,8.9z M34.1,9.4   c-0.2,0.2-0.5,0.3-0.7,0.5C33.6,9.7,33.9,9.6,34.1,9.4z M33.1,10.1c-0.2,0.1-0.3,0.3-0.5,0.4C32.8,10.4,32.9,10.3,33.1,10.1z    M32.4,10.8c-0.2,0.2-0.4,0.4-0.6,0.6C32,11.2,32.2,11,32.4,10.8z M26.2,9.8h4.2v4.2h-4.2V9.8z M9.5,44.3H5.3v-4.2h4.2V44.3z    M9.5,13.9H5.3V9.8h4.2V13.9z M20,44.3h-4.2v-4.2H20V44.3z M20,13.9h-4.2V9.8H20V13.9z M30.4,44.3h-4.2v-4.2h4.2V44.3z M30.4,15   c0-0.3,0-0.5,0.1-0.8C30.5,14.4,30.4,14.7,30.4,15c0,0.8,0.2,1.6,0.6,2.4C30.6,16.6,30.4,15.8,30.4,15z M31.7,11.6   c-0.2,0.2-0.3,0.4-0.5,0.7C31.3,12.1,31.5,11.8,31.7,11.6z M31.1,12.4c-0.1,0.2-0.2,0.4-0.3,0.7C30.9,12.9,31,12.6,31.1,12.4z    M30.8,13.2c-0.1,0.3-0.2,0.5-0.2,0.8C30.6,13.7,30.7,13.5,30.8,13.2z M60.3,49.6c0,2.4-5,5.8-13.1,5.8S34,52,34,49.6v-29   c3.1,2.1,7.8,3.4,13.1,3.4c5.3,0,10.1-1.3,13.1-3.4V49.6z M47.2,21.4C39.1,21.4,33,18,33,15c0-3,6.1-6.4,14.2-6.4S61.4,12,61.4,15   C61.4,18,55.3,21.4,47.2,21.4z" fill="#63ce4e"/><line fill="none" stroke="#63ce4e" stroke-linejoin="round" stroke-miterlimit="10" stroke-width="1.5" x1="45.1" x2="45.1" y1="27.6" y2="31.8"/><line fill="none" stroke="#63ce4e" stroke-linejoin="round" stroke-miterlimit="10" stroke-width="1.5" x1="49.3" x2="49.3" y1="27.6" y2="38"/><line fill="none" stroke="#63ce4e" stroke-linejoin="round" stroke-miterlimit="10" stroke-width="1.5" x1="39.9" x2="39.9" y1="21.3" y2="54.8"/></g></svg>